# xmcd CD database file
#
# Track frame offsets:
#	150
#	15589
#	35673
#	54172
#	71439
#	86874
#	101195
#	122109
#	134729
#	152459
#	168091
#	177496
#	199822
#
# Disc length: 2815 seconds
#
# Revision: 1
# Processed by: cddbd v1.5.2PL0 Copyright (c) Steve Scherf et al.
# Submitted via: CDex 1.70beta2
#
DISCID=b10afd0d
DTITLE=Varios - Les Etoiles de Cuba (vol 1)
DYEAR=1900
DGENRE=Salsa
TTITLE0=Veinte Años
TTITLE1=Chan Chan
TTITLE2=El Cuarto de Tula
TTITLE3=La Chica del Granizado
TTITLE4=Longina
TTITLE5=Que viva el Cha Cha Cha
TTITLE6=Bruca Manga
TTITLE7=Mi Linda Guajira
TTITLE8=Dulce Habanera
TTITLE9=Suavecito
TTITLE10=Marcia
TTITLE11=Homo Blues
TTITLE12=El Divorcio
EXTD=
EXTT0=
EXTT1=
EXTT2=
EXTT3=
EXTT4=
EXTT5=
EXTT6=
EXTT7=
EXTT8=
EXTT9=
EXTT10=
EXTT11=
EXTT12=
PLAYORDER=
